<svg width="142" height="40" viewBox="0 0 142 40" fill="none" xmlns="http://www.w3.org/2000/svg">
<rect width="40" height="40" rx="4" fill="#6D29FD"/>
<path d="M17.4493 28.98V26.9H16.0693V22.6C16.0693 21.3 15.1093 20.26 13.9893 20.04V19.96C15.1093 19.74 16.0693 18.7 16.0693 17.4V13.1H17.4493V11.02H15.2693C14.1893 11.02 13.3293 11.74 13.3293 13.04V17.08C13.3293 18.24 12.5093 18.86 11.3893 18.86V21.12C12.5093 21.12 13.3293 21.74 13.3293 22.9V26.96C13.3293 28.26 14.1893 28.98 15.2693 28.98H17.4493Z" fill="white"/>
<path d="M22.5507 11.02V13.1H23.9307V17.38C23.9307 18.68 24.8907 19.72 26.0107 19.94V20.02C24.8907 20.24 23.9307 21.28 23.9307 22.58V26.9H22.5507V28.98H24.7307C25.8107 28.98 26.6707 28.26 26.6707 26.96V22.9C26.6707 21.74 27.4907 21.12 28.6107 21.12V18.86C27.4907 18.86 26.6707 18.24 26.6707 17.08V13.04C26.6707 11.74 25.8107 11.02 24.7307 11.02H22.5507Z" fill="white"/>
<path d="M57.562 25.814C59.866 25.814 61.36 24.716 62.296 22.808L60.064 21.512C59.686 22.538 58.912 23.384 57.562 23.384C55.96 23.384 54.898 22.304 54.898 20.324V18.308C54.898 16.328 55.96 15.248 57.562 15.248C58.912 15.248 59.578 15.95 59.902 16.994L62.26 15.77C61.342 13.754 59.866 12.818 57.562 12.818C54.178 12.818 52 15.158 52 19.406C52 23.654 54.178 25.814 57.562 25.814Z" fill="black"/>
<path d="M67.9006 25.814C70.6726 25.814 72.3286 23.906 72.3286 20.864C72.3286 17.822 70.6726 15.932 67.9006 15.932C65.1286 15.932 63.4726 17.822 63.4726 20.864C63.4726 23.906 65.1286 25.814 67.9006 25.814ZM67.9006 23.708C66.8566 23.708 66.2446 23.024 66.2446 21.836V19.91C66.2446 18.722 66.8566 18.038 67.9006 18.038C68.9446 18.038 69.5566 18.722 69.5566 19.91V21.836C69.5566 23.024 68.9446 23.708 67.9006 23.708Z" fill="black"/>
<path d="M80.0228 25.598H82.6868V12.278H80.0228V17.732H79.9328C79.6628 16.688 78.6188 15.932 77.3948 15.932C75.0008 15.932 73.7588 17.66 73.7588 20.864C73.7588 24.068 75.0008 25.814 77.3948 25.814C78.6188 25.814 79.6628 25.04 79.9328 24.014H80.0228V25.598ZM78.2768 23.654C77.2688 23.654 76.5308 22.88 76.5308 21.692V20.054C76.5308 18.866 77.2688 18.092 78.2768 18.092C79.2848 18.092 80.0228 18.614 80.0228 19.478V22.268C80.0228 23.132 79.2848 23.654 78.2768 23.654Z" fill="black"/>
<path d="M89.1199 25.814C90.8479 25.814 92.2339 25.22 93.0799 24.248L91.7479 22.592C91.1539 23.204 90.5419 23.726 89.4259 23.726C88.0039 23.726 87.3379 22.934 87.3379 21.692V21.548H93.4039V20.756C93.4039 18.2 92.1439 15.932 89.0119 15.932C86.1679 15.932 84.5839 17.876 84.5839 20.864C84.5839 23.888 86.2219 25.814 89.1199 25.814ZM89.0659 17.894C90.1279 17.894 90.6499 18.668 90.6499 19.82V19.982H87.3379V19.838C87.3379 18.668 88.0039 17.894 89.0659 17.894Z" fill="black"/>
<path d="M96.5697 25.796C97.6497 25.796 98.1537 25.184 98.1537 24.356V23.996C98.1537 23.168 97.6497 22.556 96.5697 22.556C95.4897 22.556 94.9857 23.168 94.9857 23.996V24.356C94.9857 25.184 95.4897 25.796 96.5697 25.796Z" fill="black"/>
<path d="M106.228 25.598V23.42H104.608V15.212H106.228V13.034H100.252V15.212H101.872V23.42H100.252V25.598H106.228Z" fill="black"/>
<path d="M111.027 25.598V19.478C111.027 18.542 111.873 18.092 112.737 18.092C113.709 18.092 114.051 18.686 114.051 19.892V25.598H116.715V19.676C116.715 17.3 115.689 15.932 113.763 15.932C112.269 15.932 111.477 16.76 111.135 17.75H111.027V16.148H108.363V25.598H111.027Z" fill="black"/>
<path d="M120.418 15.14C121.498 15.14 121.966 14.582 121.966 13.826V13.43C121.966 12.674 121.498 12.116 120.418 12.116C119.338 12.116 118.87 12.674 118.87 13.43V13.826C118.87 14.582 119.338 15.14 120.418 15.14ZM119.086 25.598H121.75V16.148H119.086V25.598Z" fill="black"/>
<path d="M129.133 25.598V23.528H127.405V18.218H129.277V16.148H127.405V13.592H125.011V15.14C125.011 15.788 124.795 16.148 124.075 16.148H123.409V18.218H124.741V22.844C124.741 24.644 125.713 25.598 127.549 25.598H129.133Z" fill="black"/>
<path d="M130.551 19.982C130.551 23.492 131.937 26.57 133.683 28.082H136.203C134.295 26.336 133.071 23.798 133.071 20.63V19.37C133.071 16.31 134.277 13.718 136.203 11.918H133.701C131.901 13.484 130.551 16.508 130.551 19.982Z" fill="black"/>
<path d="M141.385 19.982C141.385 16.508 140.035 13.484 138.235 11.918H135.733C137.659 13.718 138.865 16.31 138.865 19.37V20.63C138.865 23.798 137.641 26.336 135.733 28.082H138.253C139.999 26.57 141.385 23.492 141.385 19.982Z" fill="black"/>
</svg>
